<svg width="305" height="100" viewBox="0 0 305 100" fill="none" xmlns="http://www.w3.org/2000/svg">
<path d="M83.3335 16.6667H16.6668C12.0418 16.6667 8.37516 20.3751 8.37516 25.0001L8.3335 75.0001C8.3335 79.6251 12.0418 83.3334 16.6668 83.3334H83.3335C87.9585 83.3334 91.6668 79.6251 91.6668 75.0001V25.0001C91.6668 20.3751 87.9585 16.6667 83.3335 16.6667ZM83.3335 75.0001H16.6668V50.0001H83.3335V75.0001ZM83.3335 33.3334H16.6668V25.0001H83.3335V33.3334Z" fill="black"/>
<path d="M118.32 14.3828H128.984C130.833 14.3828 132.454 14.5 133.848 14.7344C135.254 14.9557 136.471 15.2747 137.5 15.6914C138.529 16.1081 139.382 16.6094 140.059 17.1953C140.749 17.7812 141.296 18.4258 141.699 19.1289C142.116 19.819 142.409 20.5612 142.578 21.3555C142.747 22.1497 142.832 22.9701 142.832 23.8164C142.832 24.5326 142.747 25.2487 142.578 25.9648C142.422 26.681 142.148 27.3646 141.758 28.0156C141.38 28.6667 140.872 29.2721 140.234 29.832C139.596 30.3919 138.809 30.8802 137.871 31.2969C136.947 31.7135 135.846 32.0391 134.57 32.2734C133.307 32.5078 131.849 32.625 130.195 32.625C129.961 32.625 129.668 32.625 129.316 32.625C128.965 32.612 128.62 32.5924 128.281 32.5664L127.07 32.4883V42H118.32V14.3828ZM127.07 28.25H129.082C130.02 28.25 130.807 28.1393 131.445 27.918C132.083 27.6836 132.598 27.3711 132.988 26.9805C133.379 26.5898 133.659 26.1276 133.828 25.5938C133.997 25.0599 134.082 24.487 134.082 23.875C134.082 22.8984 133.958 22.0911 133.711 21.4531C133.464 20.8151 133.112 20.3073 132.656 19.9297C132.214 19.5391 131.686 19.2656 131.074 19.1094C130.462 18.9531 129.798 18.875 129.082 18.875H127.07V28.25ZM167.715 42H157.285L155.996 36.1211H149.141L147.91 42H140.859L147.891 14.3828H160.117L167.715 42ZM152.656 18.6797L149.98 31.5508H155.566L153.262 18.6797H152.656ZM172.148 42V32.5078L163.613 14.3828H173.652L177.012 24.3242L180.098 14.3828H188.613L180.898 32.2539V42H172.148ZM191.523 14.3828H199.648L206.523 25.125L213.398 14.3828H221.719V42H212.773V27L206.328 37.918H204.434L197.773 27V42H191.523V14.3828ZM228.418 14.3828H247.793V19.5H237.168V25.3398H246.543V30.3398H237.168V36.375H247.793V42H228.418V14.3828ZM254.18 14.3828H262.637L273.145 28.25V14.3828H279.824V42H271.152L260.801 27.3125V42H254.18V14.3828ZM289.609 42V20.75H283.359V14.3828H304.746V20.75H298.359V42H289.609ZM142.051 94H131.621L130.332 88.1211H123.477L122.246 94H115.195L122.227 66.3828H134.453L142.051 94ZM126.992 70.6797L124.316 83.5508H129.902L127.598 70.6797H126.992ZM145.586 66.3828H156.25C158.099 66.3828 159.72 66.5 161.113 66.7344C162.52 66.9557 163.737 67.2747 164.766 67.6914C165.794 68.1081 166.647 68.6094 167.324 69.1953C168.014 69.7812 168.561 70.4258 168.965 71.1289C169.382 71.819 169.674 72.5612 169.844 73.3555C170.013 74.1497 170.098 74.9701 170.098 75.8164C170.098 76.5326 170.013 77.2487 169.844 77.9648C169.688 78.681 169.414 79.3646 169.023 80.0156C168.646 80.6667 168.138 81.2721 167.5 81.832C166.862 82.3919 166.074 82.8802 165.137 83.2969C164.212 83.7135 163.112 84.0391 161.836 84.2734C160.573 84.5078 159.115 84.625 157.461 84.625C157.227 84.625 156.934 84.625 156.582 84.625C156.23 84.612 155.885 84.5924 155.547 84.5664L154.336 84.4883V94H145.586V66.3828ZM154.336 80.25H156.348C157.285 80.25 158.073 80.1393 158.711 79.918C159.349 79.6836 159.863 79.3711 160.254 78.9805C160.645 78.5898 160.924 78.1276 161.094 77.5938C161.263 77.0599 161.348 76.487 161.348 75.875C161.348 74.8984 161.224 74.0911 160.977 73.4531C160.729 72.8151 160.378 72.3073 159.922 71.9297C159.479 71.5391 158.952 71.2656 158.34 71.1094C157.728 70.9531 157.064 70.875 156.348 70.875H154.336V80.25ZM174.922 66.3828H185.586C187.435 66.3828 189.056 66.5 190.449 66.7344C191.855 66.9557 193.073 67.2747 194.102 67.6914C195.13 68.1081 195.983 68.6094 196.66 69.1953C197.35 69.7812 197.897 70.4258 198.301 71.1289C198.717 71.819 199.01 72.5612 199.18 73.3555C199.349 74.1497 199.434 74.9701 199.434 75.8164C199.434 76.5326 199.349 77.2487 199.18 77.9648C199.023 78.681 198.75 79.3646 198.359 80.0156C197.982 80.6667 197.474 81.2721 196.836 81.832C196.198 82.3919 195.41 82.8802 194.473 83.2969C193.548 83.7135 192.448 84.0391 191.172 84.2734C189.909 84.5078 188.451 84.625 186.797 84.625C186.562 84.625 186.27 84.625 185.918 84.625C185.566 84.612 185.221 84.5924 184.883 84.5664L183.672 84.4883V94H174.922V66.3828ZM183.672 80.25H185.684C186.621 80.25 187.409 80.1393 188.047 79.918C188.685 79.6836 189.199 79.3711 189.59 78.9805C189.98 78.5898 190.26 78.1276 190.43 77.5938C190.599 77.0599 190.684 76.487 190.684 75.875C190.684 74.8984 190.56 74.0911 190.312 73.4531C190.065 72.8151 189.714 72.3073 189.258 71.9297C188.815 71.5391 188.288 71.2656 187.676 71.1094C187.064 70.9531 186.4 70.875 185.684 70.875H183.672V80.25Z" fill="black"/>
</svg>
